<svg width="18" height="18" viewBox="0 0 18 18" fill="none" xmlns="http://www.w3.org/2000/svg">
<path d="M0.181745 17.3175C0.239791 17.3756 0.308721 17.4217 0.384595 17.4532C0.460469 17.4846 0.541798 17.5008 0.623933 17.5008C0.706068 17.5008 0.787397 17.4846 0.863271 17.4532C0.939144 17.4217 1.00807 17.3756 1.06612 17.3175L8.74737 9.63629L16.4317 17.3175C16.549 17.4348 16.7081 17.5007 16.8739 17.5007C17.0398 17.5007 17.1988 17.4348 17.3161 17.3175C17.4334 17.2003 17.4993 17.0412 17.4993 16.8753C17.4993 16.7095 17.4334 16.5504 17.3161 16.4332L9.63175 8.75191L17.313 1.06753C17.4303 0.95026 17.4962 0.7912 17.4962 0.625347C17.4962 0.459495 17.4303 0.300435 17.313 0.18316C17.1957 0.0658846 17.0367 0 16.8708 0C16.705 0 16.5459 0.0658846 16.4286 0.18316L8.74737 7.86754L1.063 0.186285C0.943432 0.0838936 0.789634 0.0303898 0.632337 0.0364655C0.475039 0.0425412 0.325827 0.107749 0.214518 0.219058C0.103209 0.330367 0.0380016 0.479579 0.0319259 0.636877C0.0258502 0.794174 0.0793539 0.947972 0.181745 1.06753L7.86299 8.75191L0.181745 16.4363C0.0653386 16.5534 0 16.7118 0 16.8769C0 17.042 0.0653386 17.2004 0.181745 17.3175Z" fill="#131313"/>
</svg>
