<svg width="146" height="25" viewBox="0 0 146 25" fill="none" xmlns="http://www.w3.org/2000/svg">
<g clip-path="url(#clip0_18_38)">
<path d="M28.3628 0V5.45734C28.0233 3.41404 27.0817 1.33231 24.731 1.33231H16.7115V21.6949C16.7115 23.2642 17.1599 24.6285 19.2736 25H9.11478C11.2029 24.6285 11.6449 23.2642 11.6449 21.6949V1.33231H3.63182C1.33231 1.33231 0.339482 3.41404 0 5.45734V0H28.3628Z" fill="#322C28"/>
<path d="M46.3553 0C59.5183 0.134512 60.5367 3.03613 60.5367 6.99462C60.5367 10.2357 57.7953 11.9716 54.3236 12.8939L60.8506 23.0208C61.2285 23.58 61.7277 24.0467 62.3111 24.386C62.8944 24.7254 63.5469 24.9287 64.2198 24.9808H53.2795C53.8059 24.8978 54.301 24.6767 54.7143 24.3403C54.8043 24.2752 54.8758 24.1878 54.9219 24.0868C54.9679 23.9857 54.9869 23.8744 54.9769 23.7638C54.9618 23.5079 54.8703 23.2625 54.7143 23.0592L48.9495 13.6113C48.309 13.6434 47.6684 13.6754 47.0279 13.6754H40.8211V21.6949C40.8211 23.2642 41.2631 24.6285 43.3833 25H33.1924C35.2869 24.6285 35.7545 23.2642 35.7545 21.6949V3.31156C35.7545 1.74225 35.3125 0.377914 33.1924 0H46.3553ZM40.8211 1.33231V12.3495H47.0599C54.2979 12.3495 55.4445 10.9147 55.4445 6.92416C55.4445 2.93364 53.4588 1.33231 44.5554 1.33231H40.8211Z" fill="#322C28"/>
<path d="M80.579 0C78.4909 0.377914 78.0169 1.74225 78.0169 3.31156V21.6949C78.0169 23.2642 78.4589 24.6285 80.579 25H70.4202C72.5147 24.6285 72.9823 23.2642 72.9823 21.6949V3.31156C72.9823 1.74225 72.5403 0.377914 70.4202 0H80.579Z" fill="#322C28"/>
<path d="M98.6422 0C96.3426 0.544453 97.4123 2.24827 98.5397 3.92006L111.671 22.8862V3.2411C111.671 1.49885 111.03 0.409941 109.871 0H114.521C113.374 0.409941 112.734 1.49885 112.734 3.2411V21.7269C112.734 23.5012 113.413 24.5901 114.566 25H107.148L92.5507 3.95849V21.7269C92.5507 23.5012 93.1912 24.5901 94.3506 25H89.7067C90.8533 24.5901 91.5322 23.5012 91.5322 21.7269V2.51089C90.6905 1.30713 89.4673 0.422481 88.0605 0L98.6422 0Z" fill="#322C28"/>
<path d="M122.643 24.9808C124.731 24.6093 125.096 23.2449 125.205 21.6756V3.31156C125.122 1.74225 124.757 0.377914 122.643 0H145.26V5.45734C144.921 3.41404 143.979 1.33231 141.628 1.33231H130.272V11.837C131.918 11.837 134.634 12.1061 135.184 9.47989V15.5201C134.634 12.8939 131.918 13.163 130.272 13.163V23.6997H141.628C143.979 23.6997 144.921 21.618 145.26 19.6067V24.9808H122.643Z" fill="#322C28"/>
</g>
<defs>
<clipPath id="clip0_18_38">
<rect width="145.26" height="25" fill="white"/>
</clipPath>
</defs>
</svg>
