<svg width="100" height="134" viewBox="0 0 100 134" fill="none" xmlns="http://www.w3.org/2000/svg">
<path d="M18.3721 30.4454V42.5888C19.1028 38.0307 21.3296 33.403 26.4444 33.403H44.2941V89.4225H55.5676V33.403H73.4173C78.6365 33.403 80.759 38.0307 81.4897 42.5888V30.4454H18.3721Z" fill="white"/>
<path d="M49.9306 110.056C52.7362 110.056 55.0106 107.781 55.0106 104.976C55.0106 102.17 52.7362 99.8958 49.9306 99.8958C47.125 99.8958 44.8506 102.17 44.8506 104.976C44.8506 107.781 47.125 110.056 49.9306 110.056Z" fill="white"/>
<path d="M78.4273 133.786H21.5727C15.8541 133.776 10.3723 131.501 6.32867 127.457C2.28499 123.413 0.00920133 117.932 0 112.213V21.5727C0.00920133 15.8541 2.28499 10.3723 6.32867 6.32867C10.3723 2.28499 15.8541 0.00920133 21.5727 0L78.4273 0C84.1459 0.00920133 89.6277 2.28499 93.6713 6.32867C97.715 10.3723 99.9908 15.8541 100 21.5727V112.213C99.9908 117.932 97.715 123.413 93.6713 127.457C89.6277 131.501 84.1459 133.776 78.4273 133.786ZM21.5727 0.974252C16.1125 0.983452 10.8785 3.1566 7.01757 7.01757C3.1566 10.8785 0.983454 16.1125 0.974254 21.5727V112.213C0.974254 117.676 3.14444 122.915 7.0074 126.778C10.8704 130.641 16.1097 132.811 21.5727 132.811H78.4273C83.8875 132.802 89.1215 130.629 92.9824 126.768C96.8434 122.907 99.0165 117.673 99.0257 112.213V21.5727C99.0165 16.1125 96.8434 10.8785 92.9824 7.01757C89.1215 3.1566 83.8875 0.983452 78.4273 0.974252H21.5727Z" fill="white"/>
<path d="M77.8699 129.854H21.9896C17.203 129.845 12.6151 127.939 9.2305 124.554C5.84588 121.17 3.94035 116.582 3.93115 111.795V21.9902C3.94037 17.2068 5.84702 12.6225 9.23264 9.24344C12.6183 5.86435 17.2062 3.96654 21.9896 3.96655H77.8699C82.6352 3.99409 87.1964 5.90405 90.5595 9.28017C93.9226 12.6563 95.8149 17.2249 95.824 21.9902V111.795C95.815 116.564 93.9238 121.136 90.5617 124.518C87.1995 127.899 82.6384 129.817 77.8699 129.854ZM21.9896 4.9408C17.4646 4.9408 13.1245 6.73596 9.92154 9.93234C6.71863 13.1287 4.91462 17.4652 4.90541 21.9902V111.795C4.94212 116.302 6.75825 120.612 9.95819 123.786C13.1581 126.96 17.4826 128.741 21.9896 128.74H77.8699C82.3981 128.731 86.7382 126.928 89.9401 123.726C93.142 120.524 94.9449 116.184 94.9541 111.656V21.9902C94.9358 17.4681 93.1288 13.1369 89.9279 9.94247C86.727 6.74807 82.3921 4.94996 77.8699 4.9408H21.9896Z" fill="white"/>
</svg>
