<svg width="1340" height="155" viewBox="0 0 1340 155" fill="none" xmlns="http://www.w3.org/2000/svg">
<g clip-path="url(#clip0_50_101)">
<path d="M261.642 0V50.3431C258.51 31.494 249.824 12.2903 228.139 12.2903H154.161V200.131C154.161 214.608 158.297 227.194 177.796 230.621H84.0824C103.345 227.194 107.422 214.608 107.422 200.131V12.2903H33.503C12.2903 12.2903 3.13167 31.494 0 50.3431V0H261.642Z" fill="white"/>
<path d="M427.621 0C549.047 1.24085 558.442 28.0078 558.442 64.5242C558.442 94.4228 533.152 110.436 501.126 118.944L561.337 212.363C564.823 217.521 569.428 221.826 574.81 224.957C580.191 228.088 586.21 229.963 592.417 230.444H491.495C496.351 229.678 500.918 227.639 504.731 224.535C505.561 223.934 506.221 223.129 506.645 222.196C507.07 221.264 507.245 220.237 507.153 219.217C507.014 216.857 506.17 214.593 504.731 212.717L451.551 125.562C445.643 125.858 439.734 126.153 433.825 126.153H376.569V200.131C376.569 214.608 380.646 227.194 400.204 230.621H306.195C325.516 227.194 329.83 214.608 329.83 200.131V30.5486C329.83 16.072 325.753 3.4862 306.195 0H427.621ZM376.569 12.2903V113.922H434.12C500.89 113.922 511.467 100.686 511.467 63.8742C511.467 27.0624 493.149 12.2903 411.017 12.2903H376.569Z" fill="white"/>
<path d="M743.328 0C724.066 3.4862 719.693 16.072 719.693 30.5486V200.131C719.693 214.608 723.77 227.194 743.328 230.621H649.615C668.937 227.194 673.25 214.608 673.25 200.131V30.5486C673.25 16.072 669.173 3.4862 649.615 0H743.328Z" fill="white"/>
<path d="M909.957 0C888.744 5.02249 898.612 20.7399 909.011 36.1619L1030.14 211.122V29.8986C1030.14 13.8266 1024.23 3.78164 1013.54 0H1056.44C1045.86 3.78164 1039.95 13.8266 1039.95 29.8986V200.427C1039.95 216.794 1046.21 226.839 1056.85 230.621H988.426L853.764 36.5164V200.427C853.764 216.794 859.673 226.839 870.368 230.621H827.529C838.106 226.839 844.369 216.794 844.369 200.427V23.1625C836.604 12.0581 825.321 3.89732 812.343 0L909.957 0Z" fill="white"/>
<path d="M1131.36 230.444C1150.62 227.017 1153.99 214.431 1155 199.954V30.5486C1154.23 16.072 1150.86 3.4862 1131.36 0H1340V50.3431C1336.87 31.494 1328.18 12.2903 1306.5 12.2903H1201.73V109.195C1216.92 109.195 1241.97 111.677 1247.05 87.4504V143.17C1241.97 118.944 1216.92 121.426 1201.73 121.426V218.626H1306.5C1328.18 218.626 1336.87 199.422 1340 180.869V230.444H1131.36Z" fill="white"/>
</g>
<defs>
<clipPath id="clip0_50_101">
<rect width="1340" height="230.621" fill="white"/>
</clipPath>
</defs>
</svg>
