<svg width="76" height="102" viewBox="0 0 76 102" fill="none" xmlns="http://www.w3.org/2000/svg">
<path d="M13.9619 23.1385V32.3674C14.5172 28.9033 16.2097 25.3862 20.0969 25.3862H33.6627V67.961H42.2305V25.3862H55.7963C59.7629 25.3862 61.376 28.9033 61.9313 32.3674V23.1385H13.9619Z" fill="#322C28"/>
<path d="M37.9468 83.6422C40.079 83.6422 41.8076 81.9137 41.8076 79.7814C41.8076 77.6491 40.079 75.9206 37.9468 75.9206C35.8145 75.9206 34.0859 77.6491 34.0859 79.7814C34.0859 81.9137 35.8145 83.6422 37.9468 83.6422Z" fill="#322C28"/>
<path d="M59.6047 101.677H16.3953C12.0491 101.67 7.88298 99.9405 4.80979 96.8673C1.73659 93.7941 0.00699301 89.628 0 85.2818V16.3953C0.00699301 12.0491 1.73659 7.88298 4.80979 4.80979C7.88298 1.73659 12.0491 0.00699301 16.3953 0L59.6047 0C63.9509 0.00699301 68.117 1.73659 71.1902 4.80979C74.2634 7.88298 75.993 12.0491 76 16.3953V85.2818C75.993 89.628 74.2634 93.7941 71.1902 96.8673C68.117 99.9405 63.9509 101.67 59.6047 101.677ZM16.3953 0.740431C12.2455 0.747423 8.26769 2.39901 5.33335 5.33335C2.39902 8.26769 0.747425 12.2455 0.740433 16.3953V85.2818C0.740433 89.4338 2.38977 93.4156 5.32563 96.3515C8.26148 99.2873 12.2433 100.937 16.3953 100.937H59.6047C63.7545 100.93 67.7323 99.2781 70.6666 96.3438C73.601 93.4094 75.2526 89.4316 75.2596 85.2818V16.3953C75.2526 12.2455 73.601 8.26769 70.6666 5.33335C67.7323 2.39901 63.7545 0.747423 59.6047 0.740431H16.3953Z" fill="#322C28"/>
<path d="M59.1817 98.689H16.7127C13.0749 98.682 9.5881 97.2338 7.01579 94.6615C4.44347 92.0892 2.99527 88.6024 2.98828 84.9646V16.7127C2.99529 13.0773 4.44434 9.59323 7.01741 7.02512C9.59048 4.457 13.0773 3.01467 16.7127 3.01468H59.1817C62.8033 3.03561 66.2699 4.48718 68.8258 7.05303C71.3818 9.61888 72.8199 13.091 72.8268 16.7127V84.9646C72.82 88.5887 71.3827 92.0636 68.8275 94.6337C66.2723 97.2037 62.8058 98.6611 59.1817 98.689ZM16.7127 3.75511C13.2737 3.7551 9.97519 5.11943 7.54098 7.54868C5.10676 9.97794 3.73572 13.2737 3.72871 16.7127V84.9646C3.75662 88.3898 5.13688 91.6652 7.56883 94.0773C10.0008 96.4895 13.2874 97.8429 16.7127 97.8428H59.1817C62.6232 97.8358 65.9216 96.4656 68.3551 94.0322C70.7886 91.5987 72.1588 88.3002 72.1657 84.8588V16.7127C72.1518 13.2758 70.7785 9.98413 68.3458 7.55638C65.9131 5.12863 62.6186 3.76207 59.1817 3.75511H16.7127Z" fill="#322C28"/>
</svg>
