<svg width="14" height="11" viewBox="0 0 14 11" fill="none" xmlns="http://www.w3.org/2000/svg">
<g clip-path="url(#clip0_23_3)">
<path d="M12.9375 1.125H0.5625C0.413316 1.125 0.270242 1.06574 0.164753 0.960247C0.0592633 0.854758 0 0.711684 0 0.5625C0 0.413316 0.0592633 0.270242 0.164753 0.164753C0.270242 0.0592633 0.413316 0 0.5625 0H12.9375C13.0867 0 13.2298 0.0592633 13.3352 0.164753C13.4407 0.270242 13.5 0.413316 13.5 0.5625C13.5 0.711684 13.4407 0.854758 13.3352 0.960247C13.2298 1.06574 13.0867 1.125 12.9375 1.125Z" fill="#322C28"/>
<path d="M10.6875 5.625H2.8125C2.66332 5.625 2.52024 5.56574 2.41475 5.46025C2.30926 5.35476 2.25 5.21168 2.25 5.0625C2.25 4.91332 2.30926 4.77024 2.41475 4.66475C2.52024 4.55926 2.66332 4.5 2.8125 4.5H10.6875C10.8367 4.5 10.9798 4.55926 11.0852 4.66475C11.1907 4.77024 11.25 4.91332 11.25 5.0625C11.25 5.21168 11.1907 5.35476 11.0852 5.46025C10.9798 5.56574 10.8367 5.625 10.6875 5.625Z" fill="#322C28"/>
<path d="M8.4375 10.125H5.0625C4.91332 10.125 4.77024 10.0657 4.66475 9.96025C4.55926 9.85476 4.5 9.71168 4.5 9.5625C4.5 9.41332 4.55926 9.27024 4.66475 9.16475C4.77024 9.05926 4.91332 9 5.0625 9H8.4375C8.58668 9 8.72976 9.05926 8.83525 9.16475C8.94074 9.27024 9 9.41332 9 9.5625C9 9.71168 8.94074 9.85476 8.83525 9.96025C8.72976 10.0657 8.58668 10.125 8.4375 10.125Z" fill="#322C28"/>
</g>
<defs>
<clipPath id="clip0_23_3">
<rect width="14" height="11" fill="white"/>
</clipPath>
</defs>
</svg>
